<svg width="512" height="512" viewBox="0 0 512 512" xmlns="http://www.w3.org/2000/svg">
  <!-- Background circle -->
  <circle cx="256" cy="256" r="240" fill="#4CAF50" stroke="#2E7D32" stroke-width="16"/>

  <!-- Grocery cart -->
  <!-- Cart body -->
  <rect x="120" y="180" width="200" height="120" rx="8" fill="#FFFFFF" stroke="#2E7D32" stroke-width="3"/>

  <!-- Cart handle -->
  <path d="M 320 180 Q 360 140 380 180" fill="none" stroke="#2E7D32" stroke-width="8" stroke-linecap="round"/>
  <line x1="380" y1="180" x2="380" y2="200" stroke="#2E7D32" stroke-width="8" stroke-linecap="round"/>

  <!-- Wheels -->
  <circle cx="140" cy="320" r="16" fill="#2E7D32"/>
  <circle cx="300" cy="320" r="16" fill="#2E7D32"/>
  <circle cx="140" cy="320" r="8" fill="#FFFFFF"/>
  <circle cx="300" cy="320" r="8" fill="#FFFFFF"/>

  <!-- Cart grid lines -->
  <line x1="140" y1="200" x2="140" y2="280" stroke="#E8F5E8" stroke-width="2"/>
  <line x1="160" y1="200" x2="160" y2="280" stroke="#E8F5E8" stroke-width="2"/>
  <line x1="180" y1="200" x2="180" y2="280" stroke="#E8F5E8" stroke-width="2"/>
  <line x1="200" y1="200" x2="200" y2="280" stroke="#E8F5E8" stroke-width="2"/>
  <line x1="220" y1="200" x2="220" y2="280" stroke="#E8F5E8" stroke-width="2"/>
  <line x1="240" y1="200" x2="240" y2="280" stroke="#E8F5E8" stroke-width="2"/>
  <line x1="260" y1="200" x2="260" y2="280" stroke="#E8F5E8" stroke-width="2"/>
  <line x1="280" y1="200" x2="280" y2="280" stroke="#E8F5E8" stroke-width="2"/>
  <line x1="300" y1="200" x2="300" y2="280" stroke="#E8F5E8" stroke-width="2"/>

  <!-- Grocery items in cart -->
  <!-- Apple -->
  <circle cx="160" cy="220" r="8" fill="#FF5722"/>
  <path d="M 160 212 Q 155 208 160 212" fill="#8B4513" stroke="#8B4513" stroke-width="1"/>
  <path d="M 152 216 Q 148 220 152 216" fill="#4CAF50" stroke="#4CAF50" stroke-width="1"/>

  <!-- Banana -->
  <ellipse cx="200" cy="225" rx="6" ry="12" fill="#FFEB3B" transform="rotate(-15 200 225)"/>
  <ellipse cx="210" cy="235" rx="6" ry="12" fill="#FFEB3B" transform="rotate(-15 210 235)"/>

  <!-- Tomato -->
  <circle cx="240" cy="230" r="7" fill="#F44336"/>
  <circle cx="240" cy="230" r="3" fill="#4CAF50"/>
  <path d="M 240 223 Q 235 225 240 223" fill="#4CAF50" stroke="#4CAF50" stroke-width="1"/>

  <!-- Milk carton -->
  <rect x="275" y="215" width="12" height="18" fill="#E3F2FD" stroke="#1976D2" stroke-width="1"/>
  <text x="281" y="230" font-family="Arial, sans-serif" font-size="6" fill="#1976D2" text-anchor="middle">MILK</text>

  <!-- Shopping bag -->
  <path d="M 150 160 Q 140 140 160 140 Q 180 140 170 160" fill="#FF9800" stroke="#E65100" stroke-width="2"/>
  <line x1="155" y1="160" x2="155" y2="180" stroke="#E65100" stroke-width="2"/>
  <line x1="165" y1="160" x2="165" y2="180" stroke="#E65100" stroke-width="2"/>
</svg>
